<svg id="icons" enable-background="new 0 0 64 64" height="512" viewBox="0 0 64 64" width="512" xmlns="http://www.w3.org/2000/svg"><g><g><path d="m43.493 5.995v-.12-4.86-.01h-35v3.01 52.99h37 3v-51.01z" fill="#e6e9ed"/></g><g><path d="m8.493 57.005h37v.01l.01 2.99h-3.01-36.99v-53-3l2.99.01z" fill="#ccd1d9"/></g><g><path d="m5.503 60.005h36.99l.01 2.99h-40v-56l2.99.01h.01z" fill="#e6e9ed"/></g><g><path d="m28.493 13.005v4h-4-6-4v-4h1 12z" fill="#ed5565"/></g><g><path d="m18.494 17.005c.55 0 1 .45 1 1v1c0 .55-.45 1-1 1h-3.001c-.55 0-1-.45-1-1v-1c0-.55.45-1 1-1z" fill="#656d78"/></g><g><path d="m14.493 32.005h3v3h-3z" fill="#fff"/></g><g><path d="m14.493 47.005h3v3h-3z" fill="#fff"/></g><g><path d="m27.493 10.005v3h-12v-3c0-1.1.9-2 2-2h8c1.1 0 2 .9 2 2z" fill="#5d9cec"/></g><g><path d="m30.493 47.005h3v3h-3z" fill="#fff"/></g><g><path d="m27.493 17.005c.55 0 1 .45 1 1v1c0 .55-.45 1-1 1h-3.001c-.55 0-1-.45-1-1v-1c0-.55.45-1 1-1z" fill="#656d78"/></g><g><path d="m30.493 32.005h3v3h-3z" fill="#fff"/></g><g><path d="m48.493 5.995h-5v-.12-4.86-.01z" fill="#f5f7fa"/></g><g><path d="m17.498 35.996h-3c-.553 0-1-.447-1-1v-3c0-.553.447-1 1-1h3c.553 0 1 .447 1 1v3c0 .553-.447 1-1 1zm-2-2h1v-1h-1z" fill="#fff"/></g><g><path d="m25.497 32.996h-5c-.553 0-1-.447-1-1s.447-1 1-1h5c.553 0 1 .447 1 1s-.447 1-1 1z" fill="#ccd1d9"/></g><g><path d="m22.455 35.996h-1.958c-.553 0-1-.447-1-1s.447-1 1-1h1.958c.553 0 1 .447 1 1s-.447 1-1 1z" fill="#ccd1d9"/></g><g><path d="m33.499 35.996h-3c-.553 0-1-.447-1-1v-3c0-.553.447-1 1-1h3c.553 0 1 .447 1 1v3c0 .553-.447 1-1 1zm-2-2h1v-1h-1z" fill="#fff"/></g><g><path d="m42.499 32.996h-6.001c-.553 0-1-.447-1-1s.447-1 1-1h6.001c.553 0 1 .447 1 1s-.447 1-1 1z" fill="#ccd1d9"/></g><g><path d="m38.456 35.996h-1.958c-.553 0-1-.447-1-1s.447-1 1-1h1.958c.553 0 1 .447 1 1s-.447 1-1 1z" fill="#ccd1d9"/></g><g><path d="m42.496 25.992h-27.998c-.553 0-1-.447-1-1s.447-1 1-1h27.998c.553 0 1 .447 1 1s-.447 1-1 1z" fill="#ccd1d9"/></g><g><path d="m26.498 28.994h-12c-.553 0-1-.447-1-1s.447-1 1-1h12c.553 0 1 .447 1 1s-.447 1-1 1z" fill="#ccd1d9"/></g><g><path d="m17.498 51h-3c-.553 0-1-.447-1-1v-3c0-.553.447-1 1-1h3c.553 0 1 .447 1 1v3c0 .553-.447 1-1 1zm-2-2h1v-1h-1z" fill="#fff"/></g><g><path d="m25.497 47.999h-5c-.553 0-1-.447-1-1s.447-1 1-1h5c.553 0 1 .447 1 1s-.447 1-1 1z" fill="#ccd1d9"/></g><g><path d="m22.455 51h-1.958c-.553 0-1-.447-1-1s.447-1 1-1h1.958c.553 0 1 .447 1 1s-.447 1-1 1z" fill="#ccd1d9"/></g><g><path d="m33.499 51h-3c-.553 0-1-.447-1-1v-3c0-.553.447-1 1-1h3c.553 0 1 .447 1 1v3c0 .553-.447 1-1 1zm-2-2h1v-1h-1z" fill="#fff"/></g><g><path d="m42.499 47.999h-6.001c-.553 0-1-.447-1-1s.447-1 1-1h6.001c.553 0 1 .447 1 1s-.447 1-1 1z" fill="#ccd1d9"/></g><g><path d="m38.456 51h-1.958c-.553 0-1-.447-1-1s.447-1 1-1h1.958c.553 0 1 .447 1 1s-.447 1-1 1z" fill="#ccd1d9"/></g><g><path d="m42.496 40.995h-27.998c-.553 0-1-.447-1-1s.447-1 1-1h27.998c.553 0 1 .447 1 1s-.447 1-1 1z" fill="#ccd1d9"/></g><g><path d="m26.498 43.997h-12c-.553 0-1-.447-1-1s.447-1 1-1h12c.553 0 1 .447 1 1s-.447 1-1 1z" fill="#ccd1d9"/></g><g><path d="m27.496 10.994c-.553 0-1-.448-1-1 0-.551-.448-1-1-1h-8.003c-.552 0-1 .449-1 1 0 .552-.447 1-1 1s-1-.448-1-1c0-1.654 1.346-3 3-3h8.003c1.654 0 3 1.346 3 3 0 .552-.447 1-1 1z" fill="#da4453"/></g><g><path d="m15.493 13.996c-.553 0-1-.448-1-1v-3.002c0-.552.447-1 1-1s1 .448 1 1v3.002c0 .552-.447 1-1 1z" fill="#da4453"/></g><g><path d="m27.496 13.996c-.553 0-1-.448-1-1v-3.002c0-.552.447-1 1-1s1 .448 1 1v3.002c0 .552-.447 1-1 1z" fill="#da4453"/></g><g><path d="m17.523 15.996c-.553 0-1.005-.448-1.005-1s.442-1 .994-1h.011c.552 0 1 .448 1 1s-.448 1-1 1z" fill="#e6e9ed"/></g><g><path d="m25.526 15.996c-.553 0-1.005-.448-1.005-1s.442-1 .994-1h.011c.552 0 1 .448 1 1s-.448 1-1 1z" fill="#e6e9ed"/></g><g><path d="m42.496 11.992h-9.999c-.553 0-1-.448-1-1s.447-1 1-1h9.999c.553 0 1 .448 1 1s-.447 1-1 1z" fill="#ccd1d9"/></g><g><path d="m42.496 14.994h-9.999c-.553 0-1-.448-1-1s.447-1 1-1h9.999c.553 0 1 .448 1 1s-.447 1-1 1z" fill="#ccd1d9"/></g><g><path d="m37.497 17.996h-5c-.553 0-1-.447-1-1s.447-1 1-1h5c.553 0 1 .447 1 1s-.447 1-1 1z" fill="#ccd1d9"/></g><g><path d="m28.495 17.996h-14.002c-.553 0-1-.447-1-1v-4c0-.552.447-1 1-1h14.002c.553 0 1 .448 1 1v4c0 .553-.447 1-1 1zm-13.002-2h12.002v-2h-12.002z" fill="#ed5565"/></g><g><path d="m53.493 25.986h4v22h-4z" fill="#656d78"/><path d="m57.493 16.986v9h-4v-10c0-1.11.9-2 2-2s2 .89 2 2z" fill="#656d78"/><path d="m57.493 47.986v2l-2 3-2-3v-2z" fill="#e6e9ed"/><g><path d="m58.497 15.993h-1c-.553 0-1 .447-1 1s.447 1 1 1h1c.552 0 1 .448 1 1v12c0 .553.447 1 1 1s1-.447 1-1v-12c0-1.654-1.346-3-3-3z" fill="#aab2bd"/><path d="m58.497 15.993c0-1.654-1.346-3-3-3s-3 1.346-3 3v34h6z" fill="#656d78"/><g><path d="m55.497 54.993c-.553 0-1-.447-1-1v-1c0-.553.447-1 1-1s1 .447 1 1v1c0 .553-.447 1-1 1z" fill="#5d9cec"/></g><path d="m52.497 24.993h6v2h-6z" fill="#545c66"/><path d="m52.497 49.993c0 .031.015.058.018.088.006.067.02.132.04.197.02.066.044.127.076.187.015.026.017.057.034.083l1.996 2.994c.001.001.001.002.002.003l.002.003c.068.103.155.182.25.249.011.009.016.021.027.028.013.008.026.011.039.019.056.033.114.06.176.082.025.01.05.021.076.029.083.022.168.036.253.037.004 0 .007.001.01.001h.001.001c.003 0 .006-.001.01-.001.085-.001.17-.015.253-.037.026-.008.051-.02.076-.029.062-.021.12-.049.176-.082.013-.008.026-.011.039-.019.012-.008.017-.02.027-.028.095-.067.182-.146.25-.249l.002-.003c.001-.001.001-.002.002-.003l1.996-2.994c.018-.026.02-.056.034-.083.032-.06.057-.12.076-.187.021-.066.034-.13.04-.197.003-.03.018-.057.018-.088z" fill="#e6e9ed"/></g></g></g></svg>