<?xml version="1.0" encoding="iso-8859-1"?>
<!-- Generator: Adobe Illustrator 19.0.0, SVG Export Plug-In . SVG Version: 6.00 Build 0)  -->
<svg version="1.1" id="Layer_1" xmlns="http://www.w3.org/2000/svg" xmlns:xlink="http://www.w3.org/1999/xlink" x="0px" y="0px"
	 viewBox="0 0 512 512" style="enable-background:new 0 0 512 512;" xml:space="preserve">
<g>
	<g>
		<polygon points="100.226,57.48 69.474,95.264 100.226,133.049 139.295,133.049 145.886,126.859 152.478,133.049 176.146,133.049 
			186.42,124.27 196.694,133.049 225.559,133.049 228.67,129.839 231.78,133.049 262.522,133.049 262.522,118 262.522,102.95 
			262.522,87.579 262.522,72.529 262.522,57.48 		"/>
	</g>
</g>
<g>
	<g>
		<path d="M404.289,0h-77.757c-18.692,0-33.892,15.2-33.892,33.892l-0.014,38.638h-0.006V118h0.006l0.014,38.648
			c0,18.682,15.2,33.882,33.892,33.882h77.757c18.682,0,33.882-15.2,33.882-33.882V33.892C438.171,15.2,422.971,0,404.289,0z
			 M396.203,128.574h-30.099v-66.62c0,0,30.099,0,30.099,0V128.574z"/>
	</g>
</g>
<g>
	<g>
		<path d="M441.813,259.647h-51.219l-11.739,16.635l-22.966-34.454c-8.127-12.19-21.722-19.464-36.38-19.464H192.35
			c-14.648,0-28.243,7.274-36.37,19.464l-22.906,34.353l-11.669-16.535H70.187c-11.739,0-21.26,9.511-21.26,21.26v5.799
			c0,11.739,9.521,21.26,21.26,21.26h39.731L86.25,326.899c-5.859,4.695-10.374,10.625-13.264,17.297v0.01l11.799,12.682
			l12.23,13.153h2.338h36.45v30.099h-36.45h-15.05h-0.401l-14.648-15.752v64.092h15.05h5.047h79.392v-12.531v-3.522
			c0-18.812,15.301-34.113,34.113-34.113h106.291c18.812,0,34.113,15.301,34.113,34.113v3.522v12.531h79.392h4.916h15.05v-63.951
			l-14.518,15.612h-0.532h-15.05h-36.32v-30.099h36.32h2.468l12.12-13.033l11.809-12.702v-0.01
			c-2.89-6.702-7.404-12.682-13.304-17.397l-23.658-18.932h39.862c11.739,0,21.26-9.521,21.26-21.26v-5.799
			C463.074,269.158,453.552,259.647,441.813,259.647z M392.099,307.967l-5.95,6.401l-10.394,11.187l-6.742,7.244H142.987
			l-6.792-7.304l-10.424-11.217l-5.869-6.311l-4.665-5.017l17.157-25.745l5.799,6.241l4.736,5.087l10.545,11.337l2.629,2.829h199.8
			l2.558-2.749l10.535-11.327l4.816-5.177l1.906-2.054l3.813-4.107l17.167,25.745L392.099,307.967z"/>
	</g>
</g>
<g>
	<g>
		<path d="M309.145,428.414H202.855c-2.207,0-4.013,1.796-4.013,4.013v3.522v12.531h114.317v-12.531v-3.522
			C313.159,430.21,311.353,428.414,309.145,428.414z"/>
	</g>
</g>
<g>
	<g>
		<path d="M168.742,478.58h-3.762h-15.782h-28.715h-15.782H89.53c1.816,18.732,17.658,33.42,36.852,33.42h16.906
			c9.853,0,18.802-3.863,25.454-10.154c0.321-0.301,0.632-0.612,0.943-0.923c5.779-5.879,9.622-13.675,10.465-22.344H168.742z"/>
	</g>
</g>
<g>
	<g>
		<path d="M407.299,478.58h-15.782h-28.715H347.02h-3.762H331.85c0.843,8.669,4.685,16.464,10.465,22.344
			c0.311,0.311,0.622,0.622,0.943,0.923C349.91,508.137,358.859,512,368.712,512h16.906c19.193,0,35.036-14.688,36.852-33.42
			H407.299z"/>
	</g>
</g>
<g>
</g>
<g>
</g>
<g>
</g>
<g>
</g>
<g>
</g>
<g>
</g>
<g>
</g>
<g>
</g>
<g>
</g>
<g>
</g>
<g>
</g>
<g>
</g>
<g>
</g>
<g>
</g>
<g>
</g>
</svg>
